<svg width="106" height="53" viewBox="0 0 106 53" fill="none" xmlns="http://www.w3.org/2000/svg">
<path d="M19.6019 20.0602C15.6036 19.6158 12.7607 17.5411 8.21244 18.0465C4.78897 18.427 2 21.8669 2 25.238C2 38.3445 16.3669 27.477 19.6019 21.0957C22.2841 15.805 23.7435 9.05512 23.7435 3.08818C23.7435 1.34294 23.3178 6.5959 22.6506 8.20854C20.6417 13.0642 19.5712 18.2233 17.7612 23.1669C17.6387 23.5015 15.4977 29.9557 15.6904 29.9557C16.7196 29.9557 19.5181 25.0355 20.1196 24.2025C20.5234 23.6433 26.6108 17.0328 26.8498 21.0957C27.0009 23.6649 26.8498 26.2898 26.8498 28.8626C26.8498 33.8248 28.6367 30.977 30.9914 28.3448C32.6999 26.435 33.3454 24.521 31.5091 27.827C28.9258 32.4777 34.5181 31.5036 37.2038 30.1858C39.7202 28.9511 49.5137 23.2079 49.5137 19.6574C49.5137 17.5583 49.8023 24.0154 48.9384 25.9284C46.1909 32.0132 40.7998 37.9214 35.9383 42.3826C34.0469 44.1184 26.4658 51.6494 23.3409 50.9549C22.3872 50.7429 41.8127 23.4329 43.8189 20.1177C46.8181 15.1618 47.5579 -2.64731 47.5579 3.14571C47.5579 13.491 54.1 24.9059 60.3854 32.8323C64.2931 37.7602 65.3033 40.2349 65.1598 32.4871C65.1045 29.498 65.6405 16.5137 63.6067 14.4795C63.2405 14.1132 51.8702 26.3787 50.6641 27.3092C49.0766 28.534 35.518 36.9822 40.4251 33.9829C42.5376 32.6918 65.5797 18.5225 66.1952 19.5999C68.1724 23.0606 71.308 25.7815 73.213 29.3804C74.8513 32.4755 75.9548 29.3904 76.5493 27.3092C77.8635 22.7087 80.1532 27.1655 81.9564 28.3448C85.9473 30.9546 86.1873 26.0301 89.4919 25.2956C91.8075 24.7809 94.8806 25.0982 97.2574 25.238C99.6136 25.3767 95.247 30.1148 98.8106 29.3228C107.293 27.4374 103.549 7.73862 100.364 3.49091" stroke="black" stroke-width="3" stroke-linecap="round"/>
</svg>
