<svg width="64" height="64" viewBox="0 0 64 64" fill="none" xmlns="http://www.w3.org/2000/svg">
<rect width="64" height="64" rx="32" fill="currentColor"/>
<path d="M24.3334 24C21.856 24.0059 19.4821 25.0094 17.7323 26.7904C15.9826 28.5713 15 30.9843 15 33.5C15 36.0157 15.9826 38.4287 17.7323 40.2096C19.4821 41.9906 21.856 42.9941 24.3334 43C26.8107 42.9941 29.1846 41.9906 30.9344 40.2096C32.6841 38.4287 33.6667 36.0157 33.6667 33.5C33.6667 30.9843 32.6841 28.5713 30.9344 26.7904C29.1846 25.0094 26.8107 24.0059 24.3334 24ZM38.915 24.5588C37.6762 24.5645 36.4892 25.5091 35.6143 27.1852C34.7394 28.8614 34.2481 31.1324 34.2481 33.5C34.2481 35.8676 34.7394 38.1386 35.6143 39.8148C36.4892 41.4909 37.6762 42.4355 38.915 42.4412C40.1538 42.4355 41.3408 41.4909 42.2157 39.8148C43.0905 38.1386 43.5819 35.8676 43.5819 33.5C43.5819 31.1324 43.0905 28.8614 42.2157 27.1852C41.3408 25.5091 40.1538 24.5645 38.915 24.5588ZM46.0693 25.1175C45.816 25.1148 45.565 25.3295 45.3308 25.7496C45.0966 26.1696 44.8837 26.7866 44.7044 27.5653C44.525 28.3439 44.3828 29.2689 44.2857 30.2873C44.1886 31.3057 44.1386 32.3974 44.1386 33.5C44.1386 34.6026 44.1886 35.6943 44.2857 36.7127C44.3828 37.7311 44.525 38.6561 44.7044 39.4347C44.8837 40.2134 45.0966 40.8304 45.3308 41.2504C45.565 41.6705 45.816 41.8852 46.0693 41.8825C46.3226 41.8852 46.5736 41.6705 46.8078 41.2504C47.042 40.8304 47.2549 40.2134 47.4342 39.4347C47.6136 38.6561 47.7559 37.7311 47.8529 36.7127C47.95 35.6943 48 34.6026 48 33.5C48 32.3974 47.95 31.3057 47.8529 30.2873C47.7559 29.2689 47.6136 28.3439 47.4342 27.5653C47.2549 26.7866 47.042 26.1696 46.8078 25.7496C46.5736 25.3295 46.3226 25.1148 46.0693 25.1175Z" fill="white"/>
</svg>
